<svg width="340" height="338" viewBox="0 0 340 338" fill="none" xmlns="http://www.w3.org/2000/svg">
<path d="M48.2 277.4C48.5 277.7 48.7 277.9 49 278.1C78.3 307.1 118.6 325 163 325C182.5 325 201.6 321.6 219.6 314.8C232.2 328.9 250.4 337.7 270.7 337.7C308.5 337.7 339.3 306.9 339.3 269.1C339.3 248.5 330.2 230 315.7 217.4C322 199.9 325.2 181.5 325.2 162.6C325.2 118.2 307.3 78 278.3 48.6C278.1 48.3 277.9 48 277.6 47.8C277.3 47.5 277.1 47.3 276.8 47.1C247.5 18.1 207.2 0.199951 162.8 0.199951C118.4 0.199951 78.2 18.1 48.8 47.1C48.5 47.3 48.2 47.5 48 47.8C47.7 48.1 47.5 48.3 47.3 48.6C18.3 77.9 0.400002 118.2 0.400002 162.6C0.400002 207 18.3 247.2 47.3 276.6C47.7 276.9 47.9 277.2 48.2 277.4ZM324.4 269.1C324.4 298.7 300.3 322.7 270.8 322.7C241.3 322.7 217.2 298.6 217.2 269.1C217.2 239.6 241.3 215.5 270.8 215.5C300.3 215.5 324.4 239.5 324.4 269.1ZM270.7 200.5C232.9 200.5 202.1 231.3 202.1 269.1C202.1 281.1 205.2 292.3 210.6 302.1C197.7 306.5 184.2 309.1 170.5 309.8V283C170.5 278.9 167.1 275.5 163 275.5C158.9 275.5 155.5 278.9 155.5 283V309.8C120.5 308 88.7 294 64.3 272L83.2 253.1C86.1 250.2 86.1 245.4 83.2 242.5C80.3 239.6 75.5 239.6 72.6 242.5L53.7 261.4C31.6 237 17.6 205.2 15.9 170.2H42.7C46.8 170.2 50.2 166.8 50.2 162.7C50.2 158.6 46.8 155.2 42.7 155.2H15.9C17.7 120.2 31.7 88.4 53.7 64L72.6 82.8999C74.1 84.3999 76 85.1 77.9 85.1C79.8 85.1 81.7 84.3999 83.2 82.8999C86.1 79.9999 86.1 75.2 83.2 72.3L64.3 53.3999C88.7 31.2999 120.5 17.3 155.5 15.6V42.3999C155.5 46.4999 158.9 49.8999 163 49.8999C167.1 49.8999 170.5 46.4999 170.5 42.3999V15.6C205.5 17.4 237.3 31.3999 261.7 53.3999L242.8 72.3C239.9 75.2 239.9 79.9999 242.8 82.8999C244.3 84.3999 246.2 85.1 248.1 85.1C250 85.1 251.9 84.3999 253.4 82.8999L272.3 64C294.4 88.4 308.4 120.2 310.1 155.2H283.3C279.2 155.2 275.8 158.6 275.8 162.7C275.8 166.8 279.2 170.2 283.3 170.2H310.1C309.4 183.3 307.1 196.2 303 208.6C293.4 203.4 282.4 200.5 270.7 200.5Z" fill="#337AB7"/>
<path d="M163 78.3999C158.9 78.3999 155.5 81.7999 155.5 85.8999V166.1L116.7 204.9C113.8 207.8 113.8 212.6 116.7 215.5C118.2 217 120.1 217.7 122 217.7C123.9 217.7 125.8 217 127.3 215.5L168.3 174.5C169.7 173.1 170.5 171.2 170.5 169.2V85.8999C170.5 81.7999 167.1 78.3999 163 78.3999Z" fill="#337AB7"/>
<path d="M252.9 280.9L256.4 278C261.9 273.1 266.5 268 266.5 261.7C266.5 254.8 261.8 249.8 253.2 249.8C248.1 249.8 243.7 251.5 240.8 253.7L243.3 260C245.3 258.5 248.1 256.9 251.4 256.9C255.8 256.9 257.6 259.3 257.6 262.4C257.5 266.8 253.5 271.1 245.2 278.5L240.3 282.9V288.3H267.1V281H252.8V280.9H252.9Z" fill="#337AB7"/>
<path d="M296.7 250.5H285.9L271.6 273.6V279.4H288.4V288.4H296.8V279.4H301.3V272.8H296.8V250.5H296.7ZM288.3 264.3V272.7H279.8V272.6L284.9 264.3C286.2 261.9 287.2 259.7 288.4 257.3H288.6C288.4 259.7 288.3 262 288.3 264.3Z" fill="#337AB7"/>
</svg>
