<svg width="250" height="338" viewBox="0 0 250 338" fill="none" xmlns="http://www.w3.org/2000/svg">
<path d="M23.8001 337.7H226.2C239 337.7 249.4 327.3 249.4 314.5V52.3C249.4 39.5 239 29.1 226.2 29.1H196.4V7.80005C196.4 3.70005 193 0.300049 188.9 0.300049C184.8 0.300049 181.4 3.70005 181.4 7.80005V29.1H132.5V7.80005C132.5 3.70005 129.1 0.300049 125 0.300049C120.9 0.300049 117.5 3.70005 117.5 7.80005V29.1H68.6001V7.80005C68.6001 3.70005 65.2001 0.300049 61.1001 0.300049C57.0001 0.300049 53.6001 3.70005 53.6001 7.80005V29.1H23.8001C11.0001 29.1 0.600098 39.5 0.600098 52.3V314.4C0.600098 327.2 11.0001 337.7 23.8001 337.7ZM15.6001 52.3C15.6001 47.8 19.3001 44.1001 23.8001 44.1001H53.6001V65.6001C53.6001 69.7001 57.0001 73.1001 61.1001 73.1001C65.2001 73.1001 68.6001 69.7001 68.6001 65.6001V44.1001H117.5V65.6001C117.5 69.7001 120.9 73.1001 125 73.1001C129.1 73.1001 132.5 69.7001 132.5 65.6001V44.1001H181.4V65.6001C181.4 69.7001 184.8 73.1001 188.9 73.1001C193 73.1001 196.4 69.7001 196.4 65.6001V44.1001H226.2C230.7 44.1001 234.4 47.8 234.4 52.3V314.4C234.4 318.9 230.7 322.6 226.2 322.6H23.8001C19.3001 322.6 15.6001 318.9 15.6001 314.4V52.3Z" fill="#337AB7"/>
<path d="M50.9001 132.4C52.4001 133.9 54.3001 134.6 56.2001 134.6C58.1001 134.6 60.0001 133.9 61.5001 132.4L88.0001 105.9C90.9001 103 90.9001 98.2 88.0001 95.3C85.1001 92.4 80.3001 92.4 77.4001 95.3L56.2001 116.5L48.5001 108.8C45.6001 105.9 40.8001 105.9 37.9001 108.8C35.0001 111.7 35.0001 116.5 37.9001 119.4L50.9001 132.4Z" fill="#337AB7"/>
<path d="M107.1 121.3H206.8C210.9 121.3 214.3 117.9 214.3 113.8C214.3 109.7 210.9 106.3 206.8 106.3H107.1C103 106.3 99.6001 109.7 99.6001 113.8C99.6001 117.9 103 121.3 107.1 121.3Z" fill="#337AB7"/>
<path d="M50.9001 202C52.4001 203.5 54.3001 204.2 56.2001 204.2C58.1001 204.2 60.0001 203.5 61.5001 202L88.0001 175.5C90.9001 172.6 90.9001 167.8 88.0001 164.9C85.1001 162 80.3001 162 77.4001 164.9L56.2001 186L48.5001 178.3C45.6001 175.4 40.8001 175.4 37.9001 178.3C35.0001 181.2 35.0001 186 37.9001 188.9L50.9001 202Z" fill="#337AB7"/>
<path d="M107.1 190.9H206.8C210.9 190.9 214.3 187.5 214.3 183.4C214.3 179.3 210.9 175.9 206.8 175.9H107.1C103 175.9 99.6001 179.3 99.6001 183.4C99.6001 187.5 103 190.9 107.1 190.9Z" fill="#337AB7"/>
<path d="M50.9001 271.5C52.4001 273 54.3001 273.7 56.2001 273.7C58.1001 273.7 60.0001 273 61.5001 271.5L88.0001 245C90.9001 242.1 90.9001 237.3 88.0001 234.4C85.1001 231.5 80.3001 231.5 77.4001 234.4L56.2001 255.6L48.5001 247.9C45.6001 245 40.8001 245 37.9001 247.9C35.0001 250.8 35.0001 255.6 37.9001 258.5L50.9001 271.5Z" fill="#337AB7"/>
<path d="M107.1 260.5H206.8C210.9 260.5 214.3 257.1 214.3 253C214.3 248.9 210.9 245.5 206.8 245.5H107.1C103 245.5 99.6001 248.9 99.6001 253C99.6001 257.1 103 260.5 107.1 260.5Z" fill="#337AB7"/>
</svg>
