<svg width="340" height="160" viewBox="0 0 340 160" fill="none" xmlns="http://www.w3.org/2000/svg">
<path d="M315.8 30.5C314.4 28.5 312.1 27.3 309.7 27.3H263.2V7.5C263.2 3.4 259.8 0 255.7 0H87.2C83.1 0 79.7 3.4 79.7 7.5V128.7C79.7 132.8 83.1 136.2 87.2 136.2H108.4C112.3 149.8 124.9 159.9 139.7 159.9C154.5 159.9 167.1 149.9 171 136.2H254.1C258 149.8 270.6 159.9 285.4 159.9C300.2 159.9 312.8 149.9 316.7 136.2H332.2C336.3 136.2 339.7 132.8 339.7 128.7V67C339.7 65.4 339.2 63.9 338.3 62.7L315.8 30.5ZM324.8 69.2H291.2V42.4H305.9L324.8 69.2ZM94.7 15.1H248.2V121.3H171.7C168.8 106.2 155.6 94.8 139.7 94.8C123.8 94.8 110.5 106.2 107.7 121.3H94.7V15.1ZM139.7 144.9C130 144.9 122.1 137 122.1 127.3C122.1 117.6 130 109.7 139.7 109.7C149.4 109.7 157.3 117.6 157.3 127.3C157.3 137 149.4 144.9 139.7 144.9ZM285.5 144.9C275.8 144.9 267.9 137 267.9 127.3C267.9 117.6 275.8 109.7 285.5 109.7C295.2 109.7 303.1 117.6 303.1 127.3C303.1 137 295.2 144.9 285.5 144.9ZM317.5 121.3C314.6 106.2 301.4 94.8 285.5 94.8C276.9 94.8 269 98.2 263.2 103.7V42.4H276.1V76.7C276.1 80.8 279.5 84.2 283.6 84.2H324.9V121.3H317.5Z" fill="#337AB7"/>
<path d="M7.59998 15.1H61.1C65.2 15.1 68.6 11.7 68.6 7.59998C68.6 3.49998 65.2 0.0999756 61.1 0.0999756H7.59998C3.49998 0.0999756 0.0999756 3.49998 0.0999756 7.59998C0.0999756 11.7 3.49998 15.1 7.59998 15.1Z" fill="#337AB7"/>
<path d="M61.1 27.4H19.9C15.8 27.4 12.4 30.8 12.4 34.9C12.4 39 15.8 42.4 19.9 42.4H61.1C65.2 42.4 68.6 39 68.6 34.9C68.6 30.8 65.3 27.4 61.1 27.4Z" fill="#337AB7"/>
<path d="M61.1 54.7H35.1C31 54.7 27.6 58.1 27.6 62.2C27.6 66.3 31 69.7 35.1 69.7H61.1C65.2 69.7 68.6 66.3 68.6 62.2C68.6 58.1 65.3 54.7 61.1 54.7Z" fill="#337AB7"/>
<path d="M61.1 82H52.1C48 82 44.6 85.4 44.6 89.5C44.6 93.6 48 97 52.1 97H61.1C65.2 97 68.6 93.6 68.6 89.5C68.6 85.4 65.3 82 61.1 82Z" fill="#337AB7"/>
</svg>
