<svg width="493" height="434" viewBox="0 0 493 434" fill="none" xmlns="http://www.w3.org/2000/svg">
<path d="M77.0312 244.125V379.75C77.0312 387.888 83.1937 393.312 92.4375 393.312H400.562C409.806 393.312 415.969 387.888 415.969 379.75V244.125H77.0312Z" fill="#337AB7"/>
<path d="M415.969 122.062H77.0312C67.7875 122.062 61.625 127.487 61.625 135.625V203.438C61.625 211.575 67.7875 217 77.0312 217H415.969C425.213 217 431.375 211.575 431.375 203.438V135.625C431.375 127.487 425.213 122.062 415.969 122.062Z" fill="#337AB7"/>
<path d="M146.359 122.062L144.819 120.706C138.656 111.212 137.116 101.719 141.737 93.5813C146.359 84.0875 157.144 81.375 161.766 81.375H163.306C172.55 81.375 184.875 85.4437 192.578 96.2937L209.525 122.062H246.5L218.769 82.7312C206.444 65.1 183.334 54.25 160.225 54.25C140.197 55.6063 123.25 65.1 114.006 81.375C106.303 93.5812 106.303 108.5 110.925 122.062H146.359Z" fill="#337AB7"/>
<path d="M283.475 122.062L300.422 96.2937C308.125 85.4437 320.45 81.375 329.694 81.375H331.234C335.856 81.375 346.641 84.0875 351.262 93.5812C355.884 101.719 354.344 111.212 348.181 120.706C348.181 122.062 346.641 122.062 346.641 122.062H380.534C385.156 108.5 385.156 93.5812 377.453 81.375C368.209 65.1 351.262 55.6062 331.234 54.25C308.125 52.8937 286.556 63.7437 272.691 82.7312L246.5 122.062H283.475Z" fill="#337AB7"/>
</svg>
