<svg width="50" height="50" viewBox="0 0 32 32" fill="none" xmlns="http://www.w3.org/2000/svg">
<circle cx="16" cy="16" r="16" fill="white"/>
<path d="M21.2427 4C20.2803 4.00859 19.3264 4.14688 18.4003 4.41878L18.3362 4.43987C17.7556 4.33752 17.1643 4.28127 16.5768 4.26877C15.3609 4.24767 14.3173 4.54456 13.4762 5.04147C12.6468 4.75317 10.9276 4.24767 9.11569 4.35002C7.85646 4.41878 6.47895 4.80552 5.45548 5.89621C4.44129 6.983 3.9025 8.66748 4.01459 10.9629C4.04628 11.5934 4.22408 12.6224 4.52169 13.9608C4.81543 15.296 5.23054 16.8586 5.75 18.2868C6.26946 19.7111 6.83608 20.9925 7.72273 21.8628C8.16489 22.298 8.77711 22.6691 9.49756 22.6371C10.0016 22.616 10.4561 22.3925 10.8511 22.0628C11.0436 22.3191 11.25 22.4285 11.4347 22.5308C11.6728 22.6613 11.8978 22.7504 12.1358 22.8082C12.5625 22.9176 13.2915 23.0606 14.1449 22.9137C14.4348 22.8645 14.7409 22.7676 15.047 22.6332C15.0594 22.9746 15.0717 23.3121 15.0833 23.6543C15.1274 24.7325 15.1568 25.7295 15.4737 26.6045C15.5263 26.7475 15.6677 27.4796 16.2228 28.1304C16.7824 28.7812 17.8685 29.1844 19.113 28.9156C19.9873 28.7281 21.102 28.3867 21.8433 27.321C22.5761 26.2709 22.9062 24.7614 22.9711 22.3113C22.9866 22.1769 23.0075 22.0675 23.0268 21.9613L23.2 21.9777H23.2208C24.1546 22.0183 25.1696 21.8839 26.0191 21.4847C26.7674 21.1347 27.3356 20.7807 27.7499 20.1502C27.8512 19.9947 27.9671 19.8041 27.9965 19.4783C28.0282 19.1572 27.8427 18.6478 27.5366 18.4126C26.9251 17.9407 26.5386 18.1196 26.1235 18.2095C25.7177 18.2993 25.3018 18.347 24.8874 18.3595C26.0787 16.3336 26.9321 14.1772 27.4198 12.2716C27.7097 11.1442 27.8713 10.1066 27.8829 9.19954C27.8991 8.29245 27.8233 7.49084 27.2869 6.79549C25.604 4.6266 23.2402 4.02344 21.4128 4.00391C21.3563 4.00391 21.3007 4.00391 21.2435 4.00391L21.2427 4ZM21.194 4.66801C22.9217 4.6516 25.1309 5.13991 26.7172 7.19004C27.0758 7.65023 27.181 8.32136 27.1686 9.15188C27.1562 9.9824 27.0039 10.9707 26.7257 12.0575C26.1907 14.1663 25.1711 16.6148 23.7426 18.8173C23.7913 18.854 23.847 18.8861 23.9034 18.9072C24.201 19.033 24.8813 19.1384 26.2418 18.858C26.5842 18.7837 26.8347 18.7361 27.0959 18.9353C27.225 19.0447 27.2931 19.208 27.2846 19.3791C27.2691 19.5049 27.225 19.6268 27.1477 19.7291C26.8857 20.1268 26.3678 20.5065 25.703 20.8198C25.1155 21.0956 24.269 21.2386 23.5254 21.2472C23.1474 21.2511 22.8011 21.2222 22.5058 21.1284L22.4903 21.1253C22.3767 22.2277 22.1162 24.4091 21.9461 25.4013C21.8101 26.2022 21.572 26.842 21.1175 27.3179C20.6622 27.7984 20.0221 28.0827 19.1563 28.2703C18.0857 28.5023 17.3081 28.2538 16.8056 27.8265C16.3032 27.3991 16.0728 26.8295 15.936 26.4834C15.8401 26.2436 15.7914 25.9342 15.7435 25.5185C15.6948 25.1037 15.6631 24.5989 15.6384 24.0255C15.6067 23.1504 15.5943 22.2754 15.6067 21.3964C15.1606 21.812 14.6048 22.0839 14.0081 22.1902C13.2961 22.3121 12.6638 22.1902 12.2858 22.0964C12.1003 22.0472 11.9186 21.9785 11.7501 21.8847C11.5731 21.7909 11.4077 21.6855 11.2956 21.473C11.2307 21.3511 11.2113 21.2097 11.2392 21.0753C11.2708 20.937 11.3512 20.819 11.461 20.7292C11.6659 20.5612 11.9364 20.469 12.3422 20.383C13.0836 20.2276 13.3448 20.1229 13.5018 19.9955C13.6347 19.89 13.7885 19.6705 14.0529 19.3486C14.0529 19.3369 14.0529 19.3205 14.0491 19.308C13.5706 19.2924 13.1029 19.1666 12.68 18.9337C12.5278 19.0962 11.7339 19.9432 10.7723 21.1151C10.3695 21.6027 9.92272 21.8839 9.44809 21.905C8.97732 21.9245 8.54907 21.6855 8.18731 21.3308C7.46299 20.6182 6.88246 19.3931 6.37923 18.0095C5.876 16.6258 5.4694 15.0843 5.17565 13.774C4.88577 12.4591 4.71262 11.4012 4.68788 10.8926C4.57966 8.72373 5.08289 7.26348 5.94403 6.33921C6.80516 5.41493 7.98555 5.0696 9.13734 5.00084C11.2028 4.88287 13.167 5.61104 13.5621 5.76573C14.3266 5.2407 15.3129 4.91568 16.5451 4.93521C17.1295 4.94381 17.7085 5.02038 18.2767 5.16335L18.2975 5.15085C18.5472 5.06569 18.8008 4.98834 19.0582 4.93209C19.7593 4.76411 20.4751 4.67895 21.1917 4.66723L21.194 4.66801ZM21.3509 5.36337H21.1986C20.6111 5.3704 20.0182 5.44071 19.4431 5.5665C20.7271 6.14076 21.6972 7.02284 22.3813 7.9104C22.8567 8.52059 23.2471 9.19173 23.5447 9.90818C23.6622 10.1855 23.7387 10.4168 23.7789 10.5957C23.8029 10.6856 23.8153 10.7621 23.823 10.8395C23.823 10.8801 23.8269 10.9215 23.8068 10.9903C23.8068 10.9942 23.8029 11.0028 23.8029 11.0067C23.8361 11.9185 23.6104 12.5357 23.5811 13.4068C23.5617 14.0381 23.7225 14.7788 23.7627 15.5882C23.799 16.3484 23.7071 17.1828 23.2193 18.0048C23.2595 18.054 23.2958 18.1024 23.336 18.1556C24.6285 16.0961 25.5623 13.8217 26.0578 11.8802C26.3237 10.834 26.4636 9.8863 26.476 9.1386C26.4883 8.38933 26.3515 7.84399 26.1737 7.61663C24.7885 5.8298 22.917 5.37352 21.3501 5.36258L21.3509 5.36337ZM16.4106 5.63135C15.1954 5.63526 14.3212 6.00637 13.6579 6.56344C12.9722 7.1416 12.5139 7.92681 12.2162 8.73623C11.8576 9.69254 11.7331 10.6199 11.6844 11.2512L11.7006 11.2426C12.0678 11.0356 12.5502 10.8239 13.0696 10.7059C13.5852 10.5832 14.1449 10.5465 14.6474 10.7465C15.1552 10.9411 15.5696 11.4091 15.7226 12.113C16.4485 15.507 15.4977 16.7688 15.1475 17.7204C15.0145 18.0665 14.8978 18.4165 14.8051 18.7744C14.8491 18.7658 14.894 18.7533 14.938 18.7494C15.1877 18.7298 15.3802 18.8111 15.4938 18.8595C15.8486 19.0095 16.0898 19.3189 16.2228 19.6728C16.2545 19.7666 16.2784 19.8635 16.2946 19.9697C16.307 20.0104 16.3155 20.0549 16.3155 20.1002C16.2753 21.398 16.2784 22.6965 16.3271 23.9942C16.3519 24.556 16.3882 25.0482 16.4322 25.4388C16.4763 25.8256 16.5366 26.1225 16.5776 26.224C16.7098 26.5576 16.903 26.9928 17.254 27.2897C17.6003 27.5874 18.0989 27.7827 19.0133 27.5874C19.8057 27.4124 20.2934 27.1757 20.6189 26.8342C20.9459 26.4881 21.1383 26.0123 21.2628 25.2841C21.4522 24.1895 21.8263 21.0151 21.8712 20.4213C21.8518 19.969 21.9152 19.6236 22.0605 19.3588C22.2051 19.09 22.4308 18.9236 22.6287 18.8337C22.7246 18.7892 22.8173 18.7611 22.8938 18.7361C22.8135 18.6228 22.7292 18.5087 22.6442 18.3986C22.3628 18.0524 22.1286 17.6665 21.9554 17.2555C21.875 17.0836 21.7861 16.9125 21.6895 16.75C21.5534 16.5023 21.3803 16.1883 21.1986 15.8343C20.8361 15.1343 20.4419 14.2803 20.2362 13.4498C20.0314 12.6193 20.0036 11.7614 20.5269 11.159C20.9899 10.6215 21.807 10.3988 23.026 10.5246C22.9897 10.4145 22.9704 10.3207 22.9093 10.1785C22.6318 9.51909 22.2693 8.9003 21.834 8.33855C20.799 7.00019 19.12 5.67276 16.532 5.62823L16.4106 5.63135ZM9.56713 5.68448C9.43804 5.68448 9.30508 5.68839 9.17676 5.69698C8.13397 5.7587 7.15147 6.06263 6.44648 6.8158C5.74227 7.57288 5.28001 8.80577 5.37973 10.8528C5.4006 11.2434 5.56525 12.3255 5.85049 13.6154C6.13728 14.9061 6.54311 16.4242 7.03088 17.7665C7.51711 19.1048 8.10614 20.2729 8.66966 20.826C8.95104 21.0987 9.19609 21.2128 9.41794 21.205C9.63979 21.1925 9.90957 21.062 10.2397 20.6635C10.8395 19.9315 11.4602 19.2228 12.1042 18.5314C11.1773 17.7134 10.7228 16.4773 10.9044 15.2476C11.0088 14.4788 11.025 13.7576 11.0088 13.1881C10.9972 12.6349 10.9601 12.2693 10.9601 12.0372C10.9601 12.0286 10.9601 12.0247 10.9601 12.0161V12.0122L10.9562 12.0052C10.9562 10.8043 11.1665 9.61675 11.5685 8.48934C11.8583 7.71117 12.2858 6.92674 12.929 6.28686C12.2974 6.07513 11.1734 5.7587 9.95827 5.69698C9.82918 5.68839 9.69622 5.68448 9.5679 5.68448H9.56713ZM22.345 11.1856C21.6454 11.1981 21.2543 11.3817 21.0456 11.6169C20.7549 11.9552 20.7271 12.549 20.9088 13.2818C21.0889 14.0139 21.4645 14.8319 21.8147 15.5124C21.9879 15.8539 22.1572 16.1593 22.2932 16.407C22.4347 16.6594 22.5352 16.8344 22.5955 16.9891C22.6519 17.1274 22.7168 17.2493 22.781 17.3633C23.0508 16.7852 23.0995 16.2195 23.0709 15.6257C23.0345 14.8936 22.866 14.1444 22.8938 13.3881C22.9224 12.5005 23.0956 11.9224 23.108 11.2387C22.8575 11.2067 22.6001 11.1856 22.3466 11.1856H22.345ZM13.8589 11.309C13.6455 11.309 13.4322 11.3372 13.2227 11.3864C12.8076 11.4887 12.4095 11.6427 12.0346 11.8544C11.9101 11.9231 11.7895 12.0013 11.6767 12.0911L11.6519 12.1107C11.6604 12.2661 11.6883 12.6318 11.7006 13.1771C11.713 13.7709 11.7006 14.5272 11.5886 15.346C11.3389 17.1282 12.619 18.6017 14.1209 18.6056C14.2098 18.2392 14.3536 17.868 14.4989 17.4782C14.9171 16.3383 15.7389 15.5085 15.0462 12.2614C14.9341 11.7325 14.7084 11.5169 14.3977 11.395C14.2245 11.3333 14.0444 11.3051 13.8589 11.3098V11.309ZM22.0196 11.52H22.0721C22.1363 11.5239 22.2012 11.5286 22.2569 11.5442C22.3094 11.5567 22.3581 11.5731 22.3983 11.6013C22.4385 11.6255 22.4664 11.6661 22.4749 11.7145V11.7231C22.4749 11.7724 22.4625 11.8208 22.4385 11.8661C22.4068 11.9224 22.3705 11.9755 22.3265 12.02C22.2213 12.138 22.0799 12.2161 21.9276 12.2396C21.7784 12.2607 21.63 12.22 21.5047 12.1341C21.456 12.0966 21.4081 12.056 21.3718 12.0114C21.3355 11.9747 21.3154 11.9263 21.3069 11.8771C21.3038 11.8294 21.3154 11.7802 21.3471 11.7434C21.3842 11.7059 21.4244 11.6739 21.4684 11.6497C21.5681 11.5927 21.7011 11.552 21.8549 11.5309C21.9106 11.5239 21.967 11.5192 22.0196 11.5153V11.52ZM13.9586 11.695C14.0112 11.695 14.0722 11.6989 14.1287 11.7067C14.2895 11.7317 14.4263 11.7724 14.5345 11.8372C14.5871 11.8622 14.6358 11.9028 14.6713 11.9474C14.7115 11.9966 14.7308 12.0567 14.7278 12.1224C14.7154 12.1825 14.6907 12.2404 14.6505 12.2849C14.6064 12.338 14.5585 12.3826 14.502 12.4193C14.3691 12.5169 14.2044 12.5576 14.039 12.5372C13.8728 12.5091 13.7205 12.4279 13.6084 12.3021C13.5597 12.2489 13.5195 12.1919 13.4871 12.131C13.4507 12.0739 13.4353 12.0091 13.443 11.9435C13.4592 11.8341 13.552 11.7724 13.6409 11.7403C13.7422 11.7067 13.8504 11.6958 13.9586 11.6997V11.695ZM23.2958 19.3447H23.2919C23.1435 19.4017 23.0191 19.4228 22.9139 19.4721C22.8057 19.5127 22.7199 19.5939 22.6689 19.6947C22.6001 19.8135 22.5483 20.0252 22.5638 20.3862C22.6078 20.4198 22.6604 20.4432 22.7176 20.4604C22.8908 20.5135 23.1884 20.5502 23.5184 20.5456C24.1747 20.537 24.9841 20.383 25.4146 20.1791C25.7648 20.0166 26.0949 19.7971 26.3848 19.5408C24.9477 19.8377 24.1392 19.7604 23.639 19.5533C23.5184 19.5002 23.4017 19.4306 23.2966 19.3447H23.2958ZM15.0184 19.4424H14.9975C14.9419 19.4463 14.8646 19.4674 14.7077 19.6385C14.349 20.0447 14.2245 20.301 13.9308 20.5377C13.6332 20.7776 13.2505 20.9042 12.4814 21.0628C12.2402 21.112 12.0987 21.1683 12.006 21.2128C12.0338 21.2378 12.0338 21.2464 12.0779 21.2659C12.1915 21.3315 12.3353 21.3847 12.4528 21.4167C12.7829 21.498 13.3216 21.5956 13.8898 21.498C14.4533 21.4003 15.0408 21.1268 15.5448 20.4159C15.6337 20.294 15.6407 20.1104 15.5688 19.9151C15.4969 19.7244 15.3392 19.5533 15.231 19.5088C15.1622 19.4752 15.0895 19.4556 15.0176 19.4431L15.0184 19.4424Z" fill="#161717"/>
</svg>
