<svg width="270" height="349" viewBox="0 0 270 349" fill="none" xmlns="http://www.w3.org/2000/svg">
<path d="M261.6 0H222.4C218.3 0 214.9 3.4 214.9 7.5V22.4C214.9 26.3 211.7 29.5 207.8 29.5C203.9 29.5 200.7 26.3 200.7 22.4V7.5C200.7 3.4 197.3 0 193.2 0H151.8C147.7 0 144.3 3.4 144.3 7.5V22.4C144.3 26.3 141.1 29.5 137.2 29.5H133.8C129.9 29.5 126.7 26.3 126.7 22.4V8.6C126.7 4.5 123.3 1.1 119.2 1.1H83.4C79.3 1.1 75.9 4.5 75.9 8.6V22.4C75.9 26.3 72.7001 29.5 68.8 29.5H64.3C60.4 29.5 57.2 26.3 57.2 22.4V8.6C57.2 4.5 53.8 1.1 49.7 1.1H8.30005C4.20005 1.1 0.800049 4.5 0.800049 8.6V339.5C0.800049 343.6 4.20005 347 8.30005 347H49.7C53.8 347 57.2 343.6 57.2 339.5V325.7C57.2 321.8 60.4 318.6 64.3 318.6H68.8C72.7001 318.6 75.9 321.8 75.9 325.7V339.5C75.9 343.6 79.3 347 83.4 347H119.2C123.3 347 126.7 343.6 126.7 339.5V325.7C126.7 321.8 129.9 318.6 133.8 318.6H137.2C141.1 318.6 144.3 321.8 144.3 325.7V340.6C144.3 344.7 147.7 348.1 151.8 348.1H193.2C197.3 348.1 200.7 344.7 200.7 340.6V325.7C200.7 321.8 203.9 318.6 207.8 318.6C211.7 318.6 214.9 321.8 214.9 325.7V340.6C214.9 344.7 218.3 348.1 222.4 348.1H261.6C265.7 348.1 269.1 344.7 269.1 340.6V7.5C269.1 3.4 265.7 0 261.6 0ZM254.1 333H229.9V325.6C229.9 313.4 220 303.5 207.8 303.5C195.6 303.5 185.7 313.4 185.7 325.6V333H159.3V325.6C159.3 313.4 149.4 303.5 137.2 303.5H133.8C121.6 303.5 111.7 313.4 111.7 325.6V331.9H91V325.6C91 313.4 81.1 303.5 68.9 303.5H64.4C52.2 303.5 42.3 313.4 42.3 325.6V331.9H15.9V16.1H42.3V22.4C42.3 34.6 52.2 44.5 64.4 44.5H68.9C81.1 44.5 91 34.6 91 22.4V16.1H111.8V22.4C111.8 34.6 121.7 44.5 133.9 44.5H137.3C149.5 44.5 159.4 34.6 159.4 22.4V15H185.8V22.4C185.8 34.6 195.7 44.5 207.9 44.5C220.1 44.5 230 34.6 230 22.4V15H254.2V333H254.1Z" fill="#337AB7"/>
<path d="M161.1 79.5H46.9C42.8 79.5 39.4 82.9 39.4 87C39.4 91.1 42.8 94.5 46.9 94.5H161.2C165.3 94.5 168.7 91.1 168.7 87C168.7 82.9 165.3 79.5 161.1 79.5Z" fill="#337AB7"/>
<path d="M223.1 79.5H198.5C194.4 79.5 191 82.9 191 87C191 91.1 194.4 94.5 198.5 94.5H223.1C227.2 94.5 230.6 91.1 230.6 87C230.6 82.9 227.3 79.5 223.1 79.5Z" fill="#337AB7"/>
<path d="M161.1 127.3H46.9C42.8 127.3 39.4 130.7 39.4 134.8C39.4 138.9 42.8 142.3 46.9 142.3H161.2C165.3 142.3 168.7 138.9 168.7 134.8C168.7 130.7 165.3 127.3 161.1 127.3Z" fill="#337AB7"/>
<path d="M198.5 142.3H223.1C227.2 142.3 230.6 138.9 230.6 134.8C230.6 130.7 227.2 127.3 223.1 127.3H198.5C194.4 127.3 191 130.7 191 134.8C191 138.9 194.3 142.3 198.5 142.3Z" fill="#337AB7"/>
<path d="M161.1 175.1H46.9C42.8 175.1 39.4 178.5 39.4 182.6C39.4 186.7 42.8 190.1 46.9 190.1H161.2C165.3 190.1 168.7 186.7 168.7 182.6C168.7 178.5 165.3 175.1 161.1 175.1Z" fill="#337AB7"/>
<path d="M198.5 190.1H223.1C227.2 190.1 230.6 186.7 230.6 182.6C230.6 178.5 227.2 175.1 223.1 175.1H198.5C194.4 175.1 191 178.5 191 182.6C191 186.7 194.3 190.1 198.5 190.1Z" fill="#337AB7"/>
<path d="M212.7 226.3C220.4 226.3 225.4 228.8 228.2 230L231.3 217.8C227.7 216.1 222.9 214.6 215.7 214.3V204.8H205.2V215C193.7 217.3 187 224.7 187 234.1C187 244.5 194.9 249.9 206.4 253.8C214.4 256.5 217.8 259.1 217.8 263.2C217.8 267.5 213.6 269.9 207.5 269.9C200.5 269.9 194.2 267.6 189.6 265.2L186.4 277.8C190.5 280.2 197.5 282.1 204.7 282.4V292.6H215.2V281.6C227.6 279.4 234.3 271.3 234.3 261.7C234.3 252 229.1 246.1 216.3 241.6C207.2 238.2 203.4 235.9 203.4 232.4C203.5 229.3 205.7 226.3 212.7 226.3Z" fill="#337AB7"/>
</svg>
