<svg width="292" height="348" viewBox="0 0 292 348" fill="none" xmlns="http://www.w3.org/2000/svg">
<path d="M267.7 143.7C281.6 136.2 291.1 121.6 291.3 104.8C291.3 104.7 291.3 104.5 291.3 104.4V104.3C291.3 104.1 291.3 104 291.3 103.8C291.3 103.7 291.3 103.6 291.3 103.5C291.3 103.4 291.3 103.2 291.2 103.1C291.2 103 291.2 102.9 291.1 102.7C291.1 102.6 291 102.5 291 102.4C291 102.3 290.9 102.1 290.9 102C290.9 101.9 290.8 101.8 290.8 101.7C290.7 101.5 290.7 101.4 290.6 101.3V101.2L263.2 43.2V23.5C263.2 10.7 252.8 0.199951 239.9 0.199951H51.8C39 0.199951 28.5 10.6 28.5 23.5V43.7L1.39996 101.2V101.3C1.29996 101.4 1.29995 101.6 1.19995 101.7C1.19995 101.8 1.09995 101.9 1.09995 102C1.09995 102.1 0.999954 102.3 0.999954 102.4C0.999954 102.5 0.899956 102.6 0.899956 102.7C0.899956 102.8 0.899957 102.9 0.799957 103.1C0.799957 103.2 0.799951 103.4 0.699951 103.5C0.699951 103.6 0.699951 103.7 0.699951 103.8C0.699951 104 0.699951 104.1 0.699951 104.3V104.4C0.699951 104.5 0.699951 104.7 0.699951 104.8C0.899951 121.6 10.4 136.2 24.3 143.7V312.9C24.3 332.1 37.2 347.8 53 347.8H239.1C254.9 347.8 267.8 332.1 267.8 312.9V143.7H267.7ZM246.7 134C235.5 134 225.2 127.6 220.2 117.7L218.9 111.9H275.4C272 124.6 260.4 134 246.7 134ZM88.5 111.8H138.5V118.4C133.4 127.9 123.3 134 112.4 134C101.8 134 92 128.3 86.8 119.2L88.5 111.8ZM41 52.3H86.8L76.5 96.8H20L41 52.3ZM102.2 52.3H138.5V96.8H92L102.2 52.3ZM189.8 52.3L200.1 96.8H153.6V52.3H189.8ZM272 96.8H215.5L205.2 52.3H251L272 96.8ZM153.5 111.8H203.5L205.2 119.2C199.9 128.2 190.1 134 179.6 134C168.7 134 158.7 127.9 153.5 118.4V111.8ZM43.5 23.5C43.5 19 47.2 15.2 51.8 15.2H240C244.5 15.2 248.3 18.9 248.3 23.5V37.4H43.5V23.5ZM16.7 111.8H73.2L71.8999 117.6C66.8999 127.5 56.5999 133.9 45.3999 133.9C31.5999 134 20 124.6 16.7 111.8ZM45.3 149C58.3 149 70.4999 143.3 78.8999 133.8C87.2999 143.3 99.5 149 112.5 149C125.5 149 137.7 143.3 146.1 133.8C154.5 143.3 166.7 149 179.7 149C192.7 149 204.9 143.3 213.3 133.8C221.7 143.3 233.9 149 246.9 149C249 149 251 148.8 253 148.6V286.8H39.3V148.6C41.2 148.8 43.3 149 45.3 149ZM239.1 332.8H52.8999C45.4999 332.8 39.2 323.7 39.2 312.9V301.8H252.7V312.9C252.7 323.7 246.5 332.8 239.1 332.8Z" fill="#337AB7"/>
<path d="M146 307.8C144 307.8 142.1 308.6 140.7 310C139.3 311.4 138.5 313.3 138.5 315.3C138.5 317.3 139.3 319.2 140.7 320.6C142.1 322 144 322.8 146 322.8C148 322.8 149.9 322 151.3 320.6C152.7 319.2 153.5 317.3 153.5 315.3C153.5 313.3 152.7 311.4 151.3 310C149.9 308.6 148 307.8 146 307.8Z" fill="#337AB7"/>
<path d="M184.6 247.4C186.5 247.4 188.4 246.7 189.9 245.2L225.8 209.3C228.7 206.4 228.7 201.6 225.8 198.7C222.9 195.8 218.1 195.8 215.2 198.7L179.3 234.6C176.4 237.5 176.4 242.3 179.3 245.2C180.8 246.7 182.7 247.4 184.6 247.4Z" fill="#337AB7"/>
<path d="M207.7 243C204.8 245.9 204.8 250.7 207.7 253.6C209.2 255.1 211.1 255.8 213 255.8C214.9 255.8 216.8 255.1 218.3 253.6L234.2 237.6C237.1 234.7 237.1 229.9 234.2 227C231.3 224.1 226.5 224.1 223.6 227L207.7 243Z" fill="#337AB7"/>
</svg>
