<svg width="336" height="264" viewBox="0 0 336 264" fill="none" xmlns="http://www.w3.org/2000/svg">
<path d="M335.9 108.9C335.9 96.1 325.5 85.7 312.7 85.7H292.6C292.1 84.6 291.6 83.5 290.9 82.5L245.1 11.2C241.8 6.10001 236.7 2.50001 230.8 1.20001C224.8 -0.0999874 218.8 1.00002 213.6 4.30002C203 11.1 200 25.2 206.8 35.8L238.8 85.6H97.3L129.3 35.8C131.7 32.1 132.9 27.9 132.9 23.5C132.9 15.7 129 8.50002 122.4 4.30002C117.3 1.00002 111.2 -0.0999874 105.2 1.20001C99.3 2.50001 94.2 6.00001 90.9 11.2L45.1 82.5C44.4 83.5 43.9 84.6 43.4 85.7H23.3C10.5 85.7 0.0999756 96.1 0.0999756 108.9V110.4C0.0999756 123.2 10.5 133.6 23.3 133.6H25.5L63.6 257.9C64.6 261.1 67.5 263.2 70.8 263.2H265C268.3 263.2 271.2 261 272.2 257.9L310.3 133.6H312.5C325.3 133.6 335.7 123.2 335.7 110.4V108.9H335.9ZM219.3 27.8C217 24.2 218 19.4 221.6 17C223.4 15.9 225.4 15.5 227.5 15.9C229.5 16.3 231.3 17.5 232.4 19.3L275 85.6H256.5L219.3 27.8ZM103.6 19.3C104.7 17.5 106.5 16.3 108.5 15.9C110.5 15.5 112.6 15.8 114.4 17C116.6 18.4 118 20.9 118 23.6C118 25.1 117.6 26.5 116.8 27.8L79.6 85.7H61.1L103.6 19.3ZM259.6 248.2H76.4L41.2 133.6H294.7L259.6 248.2ZM320.9 110.4C320.9 114.9 317.2 118.6 312.7 118.6H305H304.9H31.2H31.1H23.4C18.9 118.6 15.2 114.9 15.2 110.4V108.9C15.2 104.4 18.9 100.7 23.4 100.7H49H49.1H83.5H252.3H286.7C286.7 100.7 286.7 100.7 286.8 100.7H312.5C317 100.7 320.7 104.4 320.7 108.9V110.4H320.9Z" fill="#337AB7"/>
<path d="M120.9 218.8C125 218.8 128.4 215.4 128.4 211.3V170.5C128.4 166.4 125 163 120.9 163C116.8 163 113.4 166.4 113.4 170.5V211.3C113.4 215.5 116.8 218.8 120.9 218.8Z" fill="#337AB7"/>
<path d="M168 218.8C172.1 218.8 175.5 215.4 175.5 211.3V170.5C175.5 166.4 172.1 163 168 163C163.9 163 160.5 166.4 160.5 170.5V211.3C160.5 215.5 163.9 218.8 168 218.8Z" fill="#337AB7"/>
<path d="M215.1 218.8C219.2 218.8 222.6 215.4 222.6 211.3V170.5C222.6 166.4 219.2 163 215.1 163C211 163 207.6 166.4 207.6 170.5V211.3C207.6 215.5 210.9 218.8 215.1 218.8Z" fill="#337AB7"/>
</svg>
