<svg width="472" height="472" viewBox="0 0 472 472" fill="none" xmlns="http://www.w3.org/2000/svg">
<path d="M256.571 32H215.429C214.222 32 213.079 32.5449 212.319 33.4834L192.891 57.4834C191.603 59.0742 191.724 61.3809 193.172 62.8286L233.172 102.829C233.952 103.609 234.977 104 236 104C237.023 104 238.048 103.609 238.828 102.829L278.828 62.8286C280.276 61.3809 280.397 59.0742 279.109 57.4834L259.681 33.4834C258.921 32.5449 257.778 32 256.571 32H256.571ZM267.615 56H254.141L243.474 40H254.663L267.615 56ZM225.908 64H246.092L236 89.2301L225.908 64V64ZM227.474 56L236 43.2109L244.526 56H227.474V56ZM217.337 40H228.526L217.859 56H204.385L217.337 40Z" fill="#337AB7"/>
<path d="M471.816 354.801L385.45 80H428C452.262 80 472 60.2617 472 36C472 33.791 470.209 32 468 32H444C442.939 32 441.922 32.4214 441.172 33.1714C431.609 42.7339 418.896 48 405.373 48H294.792C289.218 20.6465 264.975 0 236 0C207.025 0 182.782 20.6465 177.208 48H66.627C53.1045 48 40.3906 42.7339 30.8281 33.1714C30.0781 32.4214 29.0605 32 28 32H4C1.79102 32 0 33.791 0 36C0 60.2617 19.7383 80 44 80H86.5496L0.18359 354.801L0.20166 354.806C0.0822802 355.186 0 355.581 0 356C0 375.851 16.1494 392 36 392H164C183.851 392 200 375.851 200 356C200 355.581 199.918 355.186 199.798 354.806L199.816 354.801L113.45 80H179.44C185.476 97.0184 198.982 110.524 216 116.56V384H212C200.972 384 192 392.972 192 404V416H188C168.149 416 152 432.149 152 452V468C152 470.209 153.791 472 156 472H316C318.209 472 320 470.209 320 468V452C320 432.149 303.851 416 284 416H280V404C280 392.972 271.028 384 260 384H256V116.56C273.018 110.524 286.524 97.0184 292.56 80H358.55L272.184 354.801L272.202 354.806C272.082 355.186 272 355.581 272 356C272 375.851 288.149 392 308 392H436C455.851 392 472 375.851 472 356C472 355.581 471.918 355.186 471.798 354.806L471.816 354.801V354.801ZM351.976 283.558C351.875 282.656 351.471 281.814 350.828 281.171L336.342 266.685L342.101 237.889C342.943 233.677 345.998 230.217 350.073 228.859L365.265 223.795C366.365 223.428 367.252 222.602 367.695 221.53C368.14 220.459 368.097 219.248 367.577 218.211L366.733 216.522C362.328 207.711 360 197.849 360 188C360 181.383 365.383 176 372 176C378.617 176 384 181.383 384 188C384 197.849 381.672 207.711 377.268 216.522L376.423 218.211C375.903 219.248 375.86 220.459 376.305 221.53C376.748 222.602 377.635 223.428 378.735 223.795L393.927 228.859C398.002 230.217 401.057 233.677 401.899 237.889L407.658 266.685L393.172 281.171C392.529 281.814 392.125 282.656 392.024 283.558L384.42 352H359.58L351.976 283.558L351.976 283.558ZM79.9756 283.558C79.875 282.656 79.4707 281.814 78.8281 281.171L64.3418 266.685L70.1006 237.889C70.9434 233.677 73.998 230.217 78.0732 228.859L93.2647 223.795C94.3653 223.428 95.252 222.602 95.6953 221.53C96.1397 220.459 96.0967 219.248 95.5772 218.211L94.7334 216.522C90.3281 207.711 88 197.849 88 188C88 181.383 93.3828 176 100 176C106.617 176 112 181.383 112 188C112 197.849 109.672 207.711 105.268 216.522L104.423 218.211C103.903 219.248 103.86 220.459 104.305 221.53C104.748 222.602 105.635 223.428 106.735 223.795L121.927 228.859C126.002 230.217 129.057 233.677 129.899 237.889L135.658 266.685L121.172 281.171C120.529 281.814 120.125 282.656 120.024 283.558L112.42 352H87.5801L79.9756 283.558L79.9756 283.558ZM190.55 352H120.469L127.82 285.836L142.828 270.829C143.774 269.883 144.185 268.527 143.922 267.215L137.743 236.321C136.34 229.3 131.248 223.533 124.456 221.269L113.59 217.647C117.79 208.371 120 198.179 120 188C120 176.972 111.028 168 100 168C88.9717 168 80 176.972 80 188C80 198.179 82.209 208.37 86.4102 217.647L75.544 221.269C68.752 223.533 63.6602 229.3 62.2568 236.321L56.0781 267.215C55.8154 268.527 56.2256 269.883 57.1719 270.829L72.1797 285.836L79.5308 352H9.45044L94.936 80H105.064L190.55 352H190.55ZM44 72C25.5019 72 10.2168 57.9746 8.2207 40H26.376C37.3017 50.3315 51.5293 56 66.627 56H176.148C176.061 57.3237 176 58.6545 176 60C176 64.1086 176.417 68.1214 177.208 72H44ZM272 404V416H200V404C200 397.383 205.383 392 212 392H260C266.617 392 272 397.383 272 404ZM236 112C207.327 112 184 88.6728 184 60C184 31.3272 207.327 8 236 8C264.673 8 288 31.3272 288 60C288 88.6728 264.673 112 236 112ZM295.852 56H405.373C420.471 56 434.698 50.3315 445.624 40H463.779C461.783 57.9746 446.498 72 428 72H294.792C295.583 68.1214 296 64.1086 296 60C296 58.6545 295.939 57.3237 295.852 56V56ZM377.064 80L462.55 352H392.469L399.82 285.836L414.828 270.829C415.774 269.883 416.185 268.527 415.922 267.215L409.743 236.321C408.34 229.3 403.248 223.533 396.456 221.269L385.59 217.647C389.79 208.371 392 198.179 392 188C392 176.972 383.028 168 372 168C360.972 168 352 176.972 352 188C352 198.179 354.209 208.37 358.41 217.647L347.544 221.269C340.752 223.533 335.66 229.3 334.257 236.321L328.078 267.215C327.815 268.527 328.226 269.883 329.172 270.829L344.18 285.836L351.531 352H281.45L366.936 80H377.064Z" fill="#337AB7"/>
</svg>
