<svg width="338" height="338" viewBox="0 0 338 338" fill="none" xmlns="http://www.w3.org/2000/svg">
<path d="M169.1 337.2C214 337.2 256.2 319.7 288 287.9C317.5 258.4 334.9 219.2 337 177.5C337.2 173.4 334 169.8 329.9 169.6C325.8 169.4 322.2 172.6 322 176.7C320.1 214.6 304.2 250.3 277.3 277.2C248.4 306.1 209.9 322.1 169 322.1C128.1 322.1 89.6 306.2 60.7 277.2C1.00001 217.5 1.00001 120.3 60.7 60.6C111.6 9.69998 190.8 1.19998 251 39.5L234.1 60.2L282.6 55.3L277.7 6.79998L260.6 27.8C194.3 -15.4 106.4 -6.30002 50.1 50C-15.5 115.6 -15.5 222.2 50.1 287.8C82 319.7 124.2 337.2 169.1 337.2Z" fill="#337AB7"/>
<path d="M248.4 134.4C248.4 134.3 248.4 134.2 248.3 134.2C248.3 134 248.2 133.9 248.2 133.7C248.2 133.6 248.1 133.4 248.1 133.3C248.1 133.2 248 133.1 248 133C247.8 132.5 247.6 132.1 247.3 131.7L215.5 85C214.1 82.9 211.8 81.7 209.3 81.7H128.7C126.2 81.7 123.9 82.9 122.5 85L90.7 131.6C90.4 132 90.2 132.5 90 132.9C90 133 89.9 133.1 89.9 133.2C89.8 133.3 89.8 133.5 89.8 133.6C89.8 133.8 89.7 133.9 89.7 134.1C89.7 134.2 89.7 134.3 89.6 134.3C89.5 134.8 89.4 135.3 89.4 135.8V248.7C89.4 252.8 92.8 256.2 96.9 256.2H241C245.1 256.2 248.5 252.8 248.5 248.7V135.9C248.5 135.3 248.5 134.8 248.4 134.4ZM132.7 96.7H205.3L226.8 128.3H111.1L132.7 96.7ZM233.5 241.3H104.5V143.4H233.6V241.3H233.5Z" fill="#337AB7"/>
</svg>
